<?xml version="1.0" encoding="utf-8"?>
<svg xmlns="http://www.w3.org/2000/svg" xmlns:xlink="http://www.w3.org/1999/xlink" style="margin: auto; background: none; display: block; shape-rendering: auto;" width="224px" height="224px" viewBox="0 0 100 100" preserveAspectRatio="xMidYMid">
<g transform="rotate(0 50 50)">
  <rect x="47.5" y="32.5" rx="1.4000000000000001" ry="1.4000000000000001" width="5" height="7" fill="#000000">
    <animate attributeName="opacity" values="1;0" keyTimes="0;1" dur="0.5555555555555556s" begin="-0.5s" repeatCount="indefinite"></animate>
  </rect>
</g><g transform="rotate(36 50 50)">
  <rect x="47.5" y="32.5" rx="1.4000000000000001" ry="1.4000000000000001" width="5" height="7" fill="#000000">
    <animate attributeName="opacity" values="1;0" keyTimes="0;1" dur="0.5555555555555556s" begin="-0.4444444444444444s" repeatCount="indefinite"></animate>
  </rect>
</g><g transform="rotate(72 50 50)">
  <rect x="47.5" y="32.5" rx="1.4000000000000001" ry="1.4000000000000001" width="5" height="7" fill="#000000">
    <animate attributeName="opacity" values="1;0" keyTimes="0;1" dur="0.5555555555555556s" begin="-0.3888888888888889s" repeatCount="indefinite"></animate>
  </rect>
</g><g transform="rotate(108 50 50)">
  <rect x="47.5" y="32.5" rx="1.4000000000000001" ry="1.4000000000000001" width="5" height="7" fill="#000000">
    <animate attributeName="opacity" values="1;0" keyTimes="0;1" dur="0.5555555555555556s" begin="-0.3333333333333333s" repeatCount="indefinite"></animate>
  </rect>
</g><g transform="rotate(144 50 50)">
  <rect x="47.5" y="32.5" rx="1.4000000000000001" ry="1.4000000000000001" width="5" height="7" fill="#000000">
    <animate attributeName="opacity" values="1;0" keyTimes="0;1" dur="0.5555555555555556s" begin="-0.2777777777777778s" repeatCount="indefinite"></animate>
  </rect>
</g><g transform="rotate(180 50 50)">
  <rect x="47.5" y="32.5" rx="1.4000000000000001" ry="1.4000000000000001" width="5" height="7" fill="#000000">
    <animate attributeName="opacity" values="1;0" keyTimes="0;1" dur="0.5555555555555556s" begin="-0.2222222222222222s" repeatCount="indefinite"></animate>
  </rect>
</g><g transform="rotate(216 50 50)">
  <rect x="47.5" y="32.5" rx="1.4000000000000001" ry="1.4000000000000001" width="5" height="7" fill="#000000">
    <animate attributeName="opacity" values="1;0" keyTimes="0;1" dur="0.5555555555555556s" begin="-0.16666666666666666s" repeatCount="indefinite"></animate>
  </rect>
</g><g transform="rotate(252 50 50)">
  <rect x="47.5" y="32.5" rx="1.4000000000000001" ry="1.4000000000000001" width="5" height="7" fill="#000000">
    <animate attributeName="opacity" values="1;0" keyTimes="0;1" dur="0.5555555555555556s" begin="-0.1111111111111111s" repeatCount="indefinite"></animate>
  </rect>
</g><g transform="rotate(288 50 50)">
  <rect x="47.5" y="32.5" rx="1.4000000000000001" ry="1.4000000000000001" width="5" height="7" fill="#000000">
    <animate attributeName="opacity" values="1;0" keyTimes="0;1" dur="0.5555555555555556s" begin="-0.05555555555555555s" repeatCount="indefinite"></animate>
  </rect>
</g><g transform="rotate(324 50 50)">
  <rect x="47.5" y="32.5" rx="1.4000000000000001" ry="1.4000000000000001" width="5" height="7" fill="#000000">
    <animate attributeName="opacity" values="1;0" keyTimes="0;1" dur="0.5555555555555556s" begin="0s" repeatCount="indefinite"></animate>
  </rect>
</g>
<!-- [ldio] generated by https://loading.io/ --></svg>